{
    "accessors" : [
        {
            "bufferView" : 0,
            "componentType" : 5121,
            "count" : 6,
            "max" : [
                3
            ],
            "min" : [
                0
            ],
            "type" : "SCALAR"
        },
        {
            "bufferView" : 1,
            "componentType" : 5126,
            "count" : 4,
            "max" : [
                1.0,
                0.0,
                1.0
            ],
            "min" : [
                -1.0,
                0.0,
                -1.0
            ],
            "type" : "VEC3"
        },
        {
            "bufferView" : 2,
            "componentType" : 5126,
            "count" : 4,
            "max" : [
                0.0,
                1.0,
                -0.0
            ],
            "min" : [
                0.0,
                1.0,
                -0.0
            ],
            "type" : "VEC3"
        },
        {
            "bufferView" : 3,
            "componentType" : 5126,
            "count" : 4,
            "max" : [
                1.0,
                0.0,
                -0.0,
                1.0
            ],
            "min" : [
                1.0,
                0.0,
                -0.0,
                1.0
            ],
            "type" : "VEC4"
        },
        {
            "bufferView" : 4,
            "componentType" : 5126,
            "count" : 4,
            "max" : [
                0.9999000430107117,
                0.9999000199895818
            ],
            "min" : [
                9.998001041822135e-05,
                9.995698928833008e-05
            ],
            "type" : "VEC2"
        },
        {
            "bufferView" : 5,
            "componentType" : 5121,
            "count" : 6,
            "max" : [
                3
            ],
            "min" : [
                0
            ],
            "type" : "SCALAR"
        },
        {
            "bufferView" : 6,
            "componentType" : 5126,
            "count" : 4,
            "max" : [
                1.0,
                0.0,
                1.0
            ],
            "min" : [
                -1.0,
                0.0,
                -1.0
            ],
            "type" : "VEC3"
        },
        {
            "bufferView" : 7,
            "componentType" : 5126,
            "count" : 4,
            "max" : [
                0.0,
                1.0,
                -0.0
            ],
            "min" : [
                0.0,
                1.0,
                -0.0
            ],
            "type" : "VEC3"
        },
        {
            "bufferView" : 8,
            "componentType" : 5126,
            "count" : 4,
            "max" : [
                1.0,
                0.0,
                -0.0,
                1.0
            ],
            "min" : [
                1.0,
                0.0,
                -0.0,
                1.0
            ],
            "type" : "VEC4"
        },
        {
            "bufferView" : 9,
            "componentType" : 5126,
            "count" : 4,
            "max" : [
                0.9999000430107117,
                0.9999000199895818
            ],
            "min" : [
                9.998001041822135e-05,
                9.995698928833008e-05
            ],
            "type" : "VEC2"
        },
        {
            "bufferView" : 10,
            "componentType" : 5121,
            "count" : 6,
            "max" : [
                3
            ],
            "min" : [
                0
            ],
            "type" : "SCALAR"
        },
        {
            "bufferView" : 11,
            "componentType" : 5126,
            "count" : 4,
            "max" : [
                1.0,
                0.0,
                1.0
            ],
            "min" : [
                -1.0,
                0.0,
                -1.0
            ],
            "type" : "VEC3"
        },
        {
            "bufferView" : 12,
            "componentType" : 5126,
            "count" : 4,
            "max" : [
                0.0,
                1.0,
                -0.0
            ],
            "min" : [
                0.0,
                1.0,
                -0.0
            ],
            "type" : "VEC3"
        },
        {
            "bufferView" : 13,
            "componentType" : 5126,
            "count" : 4,
            "max" : [
                1.0,
                0.0,
                -0.0,
                1.0
            ],
            "min" : [
                1.0,
                0.0,
                -0.0,
                1.0
            ],
            "type" : "VEC4"
        },
        {
            "bufferView" : 14,
            "componentType" : 5126,
            "count" : 4,
            "max" : [
                0.9999000430107117,
                0.9999000199895818
            ],
            "min" : [
                9.998001041822135e-05,
                9.995698928833008e-05
            ],
            "type" : "VEC2"
        }
    ],
    "asset" : {
        "generator" : "Khronos Blender glTF 2.0 exporter",
        "version" : "2.0"
    },
    "bufferViews" : [
        {
            "buffer" : 0,
            "byteLength" : 6,
            "byteOffset" : 0,
            "target" : 34963
        },
        {
            "buffer" : 0,
            "byteLength" : 48,
            "byteOffset" : 8,
            "target" : 34962
        },
        {
            "buffer" : 0,
            "byteLength" : 48,
            "byteOffset" : 56,
            "target" : 34962
        },
        {
            "buffer" : 0,
            "byteLength" : 64,
            "byteOffset" : 104,
            "target" : 34962
        },
        {
            "buffer" : 0,
            "byteLength" : 32,
            "byteOffset" : 168,
            "target" : 34962
        },
        {
            "buffer" : 0,
            "byteLength" : 6,
            "byteOffset" : 200,
            "target" : 34963
        },
        {
            "buffer" : 0,
            "byteLength" : 48,
            "byteOffset" : 208,
            "target" : 34962
        },
        {
            "buffer" : 0,
            "byteLength" : 48,
            "byteOffset" : 256,
            "target" : 34962
        },
        {
            "buffer" : 0,
            "byteLength" : 64,
            "byteOffset" : 304,
            "target" : 34962
        },
        {
            "buffer" : 0,
            "byteLength" : 32,
            "byteOffset" : 368,
            "target" : 34962
        },
        {
            "buffer" : 0,
            "byteLength" : 6,
            "byteOffset" : 400,
            "target" : 34963
        },
        {
            "buffer" : 0,
            "byteLength" : 48,
            "byteOffset" : 408,
            "target" : 34962
        },
        {
            "buffer" : 0,
            "byteLength" : 48,
            "byteOffset" : 456,
            "target" : 34962
        },
        {
            "buffer" : 0,
            "byteLength" : 64,
            "byteOffset" : 504,
            "target" : 34962
        },
        {
            "buffer" : 0,
            "byteLength" : 32,
            "byteOffset" : 568,
            "target" : 34962
        }
    ],
    "buffers" : [
        {
            "byteLength" : 600,
            "uri" : "ground.bin"
        }
    ],
    "images" : [
        {
            "name" : "dirt_road",
            "uri" : "dirt_road.png"
        },
        {
            "name" : "stars",
            "uri" : "stars.png"
        },
        {
            "name" : "water",
            "uri" : "water.png"
        }
    ],
    "materials" : [
        {
            "name" : "Road",
            "pbrMetallicRoughness" : {
                "baseColorFactor" : [
                    0.6400000190734865,
                    0.6400000190734865,
                    0.6400000190734865,
                    1.0
                ],
                "baseColorTexture" : {
                    "index" : 0
                },
                "metallicFactor" : 0.0
            }
        },
        {
            "name" : "StarryFloor",
            "pbrMetallicRoughness" : {
                "baseColorFactor" : [
                    0.6400000190734865,
                    0.6400000190734865,
                    0.6400000190734865,
                    1.0
                ],
                "baseColorTexture" : {
                    "index" : 1
                },
                "metallicFactor" : 0.0
            }
        },
        {
            "name" : "Water",
            "pbrMetallicRoughness" : {
                "baseColorFactor" : [
                    0.6400000190734865,
                    0.6400000190734865,
                    0.6400000190734865,
                    1.0
                ],
                "baseColorTexture" : {
                    "index" : 2
                },
                "metallicFactor" : 0.0
            }
        }
    ],
    "meshes" : [
        {
            "name" : "Plane.002",
            "primitives" : [
                {
                    "attributes" : {
                        "NORMAL" : 2,
                        "POSITION" : 1,
                        "TANGENT" : 3,
                        "TEXCOORD_0" : 4
                    },
                    "indices" : 0,
                    "material" : 2
                }
            ]
        },
        {
            "name" : "Plane.001",
            "primitives" : [
                {
                    "attributes" : {
                        "NORMAL" : 7,
                        "POSITION" : 6,
                        "TANGENT" : 8,
                        "TEXCOORD_0" : 9
                    },
                    "indices" : 5,
                    "material" : 0
                }
            ]
        },
        {
            "name" : "Plane",
            "primitives" : [
                {
                    "attributes" : {
                        "NORMAL" : 12,
                        "POSITION" : 11,
                        "TANGENT" : 13,
                        "TEXCOORD_0" : 14
                    },
                    "indices" : 10,
                    "material" : 1
                }
            ]
        }
    ],
    "nodes" : [
        {
            "name" : "Camera",
            "rotation" : [
                0.483536034822464,
                0.33687159419059753,
                -0.20870360732078552,
                0.7804827094078064
            ],
            "translation" : [
                9.73011302947998,
                5.34366512298584,
                9.021879196166992
            ]
        },
        {
            "name" : "Lamp",
            "rotation" : [
                0.16907575726509094,
                0.7558802962303162,
                -0.27217137813568115,
                0.570947527885437
            ],
            "scale" : [
                1.0,
                1.0,
                0.9999999403953552
            ],
            "translation" : [
                4.076245307922363,
                5.903861999511719,
                -1.0054539442062378
            ]
        },
        {
            "mesh" : 2,
            "name" : "Plane",
            "scale" : [
                5.0,
                1.0,
                5.0
            ],
            "translation" : [
                -10.0,
                0.0,
                -0.0
            ]
        },
        {
            "mesh" : 2,
            "name" : "Plane.001",
            "scale" : [
                5.0,
                1.0,
                5.0
            ],
            "translation" : [
                10.0,
                0.0,
                -0.0
            ]
        },
        {
            "mesh" : 1,
            "name" : "Plane.002",
            "scale" : [
                5.0,
                1.0,
                5.0
            ]
        },
        {
            "mesh" : 0,
            "name" : "Plane.003",
            "scale" : [
                5.0,
                1.0,
                5.0
            ],
            "translation" : [
                -10.0,
                0.0,
                10.0
            ]
        },
        {
            "mesh" : 0,
            "name" : "Plane.004",
            "scale" : [
                5.0,
                1.0,
                5.0
            ],
            "translation" : [
                10.0,
                0.0,
                10.0
            ]
        },
        {
            "mesh" : 1,
            "name" : "Plane.005",
            "scale" : [
                5.0,
                1.0,
                5.0
            ],
            "translation" : [
                0.0,
                0.0,
                10.0
            ]
        },
        {
            "mesh" : 2,
            "name" : "Plane.006",
            "scale" : [
                5.0,
                1.0,
                5.0
            ],
            "translation" : [
                20.0,
                0.0,
                -0.0
            ]
        },
        {
            "mesh" : 2,
            "name" : "Plane.007",
            "scale" : [
                5.0,
                1.0,
                5.0
            ],
            "translation" : [
                30.0,
                0.0,
                -0.0
            ]
        },
        {
            "mesh" : 2,
            "name" : "Plane.008",
            "scale" : [
                5.0,
                1.0,
                5.0
            ],
            "translation" : [
                -20.0,
                0.0,
                -0.0
            ]
        },
        {
            "mesh" : 2,
            "name" : "Plane.009",
            "scale" : [
                5.0,
                1.0,
                5.0
            ],
            "translation" : [
                -20.0,
                0.0,
                -0.0
            ]
        },
        {
            "mesh" : 2,
            "name" : "Plane.010",
            "scale" : [
                5.0,
                1.0,
                5.0
            ],
            "translation" : [
                -30.0,
                0.0,
                -0.0
            ]
        },
        {
            "mesh" : 2,
            "name" : "Plane.011",
            "scale" : [
                5.0,
                1.0,
                5.0
            ],
            "translation" : [
                -40.0,
                0.0,
                -0.0
            ]
        },
        {
            "mesh" : 0,
            "name" : "Plane.012",
            "scale" : [
                5.0,
                1.0,
                5.0
            ],
            "translation" : [
                -20.0,
                0.0,
                10.0
            ]
        },
        {
            "mesh" : 0,
            "name" : "Plane.013",
            "scale" : [
                5.0,
                1.0,
                5.0
            ],
            "translation" : [
                -30.0,
                0.0,
                10.0
            ]
        },
        {
            "mesh" : 0,
            "name" : "Plane.014",
            "scale" : [
                5.0,
                1.0,
                5.0
            ],
            "translation" : [
                -40.0,
                0.0,
                10.0
            ]
        },
        {
            "mesh" : 0,
            "name" : "Plane.015",
            "scale" : [
                5.0,
                1.0,
                5.0
            ],
            "translation" : [
                20.0,
                0.0,
                10.0
            ]
        }
    ],
    "samplers" : [
        {}
    ],
    "scene" : 0,
    "scenes" : [
        {
            "name" : "Scene",
            "nodes" : [
                17,
                16,
                15,
                14,
                13,
                12,
                11,
                10,
                9,
                8,
                7,
                6,
                5,
                4,
                3,
                2,
                1,
                0
            ]
        }
    ],
    "textures" : [
        {
            "sampler" : 0,
            "source" : 0
        },
        {
            "sampler" : 0,
            "source" : 1
        },
        {
            "sampler" : 0,
            "source" : 2
        }
    ]
}
